<?xml version="1.0" standalone="no"?>
<!DOCTYPE svg PUBLIC "-//W3C//DTD SVG 20010904//EN"
 "http://www.w3.org/TR/2001/REC-SVG-20010904/DTD/svg10.dtd">
<svg version="1.0" xmlns="http://www.w3.org/2000/svg"
 width="800.000000pt" height="638.000000pt" viewBox="0 0 800.000000 638.000000"
 preserveAspectRatio="xMidYMid meet">
<metadata>
Created by potrace 1.16, written by Peter Selinger 2001-2019
</metadata>
<g transform="translate(0.000000,638.000000) scale(0.100000,-0.100000)"
fill="#000000" stroke="none">
<path d="M4277 5620 c-3 -14 -14 -20 -31 -20 -17 0 -26 -6 -26 -15 0 -11 7
-14 25 -9 15 4 25 2 25 -5 0 -6 5 -11 10 -11 6 0 23 -11 37 -24 24 -23 25 -26
10 -41 -10 -9 -17 -20 -17 -24 0 -12 -36 -51 -47 -51 -10 0 0 -120 12 -140 13
-21 19 -670 6 -670 -6 0 -11 -7 -11 -15 0 -8 6 -15 14 -15 11 0 14 -24 15
-115 0 -64 3 -126 7 -139 3 -13 1 -27 -5 -30 -15 -10 -14 -37 2 -33 20 4 22
-122 3 -137 -9 -6 -18 -27 -20 -46 -4 -36 -8 -38 -66 -29 -20 3 -24 0 -21 -16
3 -20 3 -20 -18 -1 -11 10 -18 23 -15 28 3 4 2 7 -3 6 -9 -3 -84 51 -96 69 -4
7 -12 13 -17 13 -20 0 -8 -21 34 -62 68 -66 145 -229 172 -365 11 -54 48 -38
60 25 4 18 10 32 15 32 5 0 9 8 9 19 0 10 7 24 16 32 13 11 14 9 8 -17 -4 -16
-13 -41 -20 -56 -8 -15 -14 -36 -14 -46 0 -11 -11 -30 -25 -43 -13 -13 -25
-28 -25 -32 0 -19 -46 -67 -74 -78 -17 -6 -50 -20 -73 -30 -53 -23 -53 -23
-53 0 0 23 17 38 50 43 18 2 26 10 28 29 3 23 -1 26 -27 26 -26 0 -31 -4 -31
-24 0 -26 -9 -29 -29 -10 -11 10 -14 9 -19 -2 -2 -7 -13 -22 -23 -32 -11 -11
-19 -21 -20 -24 -8 -46 -29 -63 -29 -24 0 15 -4 19 -16 15 -9 -3 -20 -6 -24
-6 -13 0 -60 -46 -60 -59 0 -14 17 -14 22 0 6 19 72 2 101 -25 15 -14 34 -22
45 -20 10 3 25 -3 35 -14 18 -20 19 -20 75 0 31 11 61 24 67 29 5 5 19 9 31 9
13 0 26 5 29 10 3 6 14 10 23 10 29 0 128 45 161 73 18 15 41 27 51 27 11 0
30 5 44 12 23 10 29 8 46 -12 18 -21 22 -22 70 -10 53 13 90 46 90 82 0 11 11
22 25 28 14 5 25 16 25 24 0 8 6 19 13 23 6 4 18 19 26 33 l14 25 -26 -23
c-16 -15 -27 -20 -32 -13 -3 6 1 11 9 11 21 0 21 40 -1 85 -16 34 -38 46 -45
24 -2 -6 -12 -1 -22 10 -18 20 -18 21 8 33 21 9 29 9 35 0 4 -8 10 -5 19 8 9
16 9 18 -2 14 -9 -3 -16 5 -20 21 -6 22 -9 25 -21 15 -10 -8 -25 -9 -42 -4
-16 4 -32 8 -36 8 -9 1 -27 27 -27 39 0 14 80 7 86 -8 15 -38 24 -6 24 85 0
85 2 100 16 100 13 0 15 6 9 28 -14 58 -17 104 -6 115 6 6 11 22 11 37 0 40
54 123 116 179 66 58 175 115 209 108 15 -2 22 0 18 8 -2 8 7 15 24 18 15 2
64 12 108 21 80 16 190 21 383 18 83 -2 102 -5 102 -17 0 -17 9 -18 69 -4 48
11 85 4 78 -15 -4 -10 7 -12 44 -8 39 4 49 1 49 -10 0 -12 10 -14 50 -10 41 4
50 2 50 -12 0 -19 4 -20 28 -5 14 9 26 8 51 -6 44 -22 52 -11 10 14 -19 11
-40 25 -48 32 -8 7 -44 14 -80 15 -37 2 -87 10 -112 18 -26 9 -66 14 -95 12
-27 -2 -53 -1 -59 4 -15 12 -85 19 -225 24 -69 2 -132 6 -140 9 -8 3 -26 8
-40 10 -19 3 -17 5 10 6 32 1 70 20 70 34 0 3 -15 5 -33 4 -20 0 -46 8 -64 21
-33 24 -53 28 -53 12 0 -5 5 -10 10 -10 6 0 10 -4 10 -10 0 -5 -7 -10 -15 -10
-8 0 -15 5 -15 10 0 6 -4 10 -9 10 -14 0 13 -48 35 -65 17 -12 17 -14 3 -15
-9 0 -19 7 -23 15 -9 23 -35 18 -67 -15 -25 -24 -34 -28 -54 -20 -16 6 -25 6
-25 0 0 -6 -5 -10 -11 -10 -6 0 -8 8 -5 18 5 14 -3 22 -34 36 -41 18 -80 14
-80 -8 0 -7 -11 -18 -25 -24 -14 -6 -25 -16 -25 -22 0 -5 -7 -10 -15 -10 -18
0 -20 -36 -2 -44 6 -3 -4 -3 -23 0 -19 3 -39 10 -44 15 -6 5 -27 9 -48 9 -21
0 -38 5 -38 10 0 6 -11 10 -25 10 -14 0 -25 5 -25 10 0 6 -9 10 -20 10 -11 0
-20 5 -20 10 0 6 12 10 26 10 14 0 23 4 20 9 -3 5 -35 7 -71 5 -63 -3 -65 -3
-65 21 0 17 -4 23 -14 19 -7 -3 -21 2 -30 11 -13 13 -16 38 -16 130 0 63 4
116 9 119 4 3 11 35 15 70 4 36 18 105 32 153 15 49 28 95 31 104 3 9 -6 26
-18 38 -13 11 -17 21 -11 21 7 0 12 7 12 16 0 9 6 14 13 11 10 -4 13 2 9 21
-4 21 -2 24 12 19 10 -4 20 -7 22 -7 2 0 4 -7 4 -16 0 -9 6 -14 13 -11 6 2 11
9 10 15 -2 6 4 9 12 6 9 -4 15 0 15 10 0 9 -7 16 -15 16 -8 0 -15 5 -15 11 0
6 -6 16 -12 24 -37 38 -49 58 -43 72 4 13 3 14 -9 4 -8 -7 -25 -9 -39 -6 -17
5 -26 2 -30 -9 -4 -10 -18 -16 -37 -16 -33 0 -39 -14 -12 -29 15 -9 14 -10 -8
-11 -35 0 -45 -10 -48 -49 -3 -29 -1 -33 15 -26 10 4 26 9 35 12 10 3 20 14
23 24 4 12 14 18 31 17 39 -4 28 -25 -29 -57 -42 -24 -73 -27 -80 -8 -4 9 -8
8 -17 -3 -10 -13 -11 -13 -7 1 7 22 -57 56 -76 40 -12 -9 -18 -6 -31 13 -20
31 -21 47 -1 40 29 -11 28 25 -2 50 -35 31 -79 34 -86 6z"/>
<path d="M5990 5121 c0 -5 -48 -8 -107 -6 -103 3 -145 -2 -144 -18 1 -4 -11
-21 -26 -38 -28 -31 -65 -101 -57 -108 2 -2 25 4 51 13 47 17 57 21 116 45 37
14 77 14 110 -1 26 -13 37 -38 17 -38 -5 0 -10 -8 -10 -17 0 -14 3 -13 20 5
24 25 41 27 71 10 18 -11 23 -10 40 11 11 13 30 25 44 26 13 2 29 6 34 10 19
11 31 -5 19 -25 -18 -28 -6 -32 36 -15 38 16 38 16 17 34 -11 10 -39 26 -63
35 -24 10 -50 22 -58 27 -8 5 -32 17 -52 26 -21 9 -38 20 -38 25 0 4 -4 8 -10
8 -5 0 -10 -4 -10 -9z"/>
<path d="M5604 5034 c-6 -3 -9 -15 -7 -27 3 -14 -3 -26 -16 -35 -19 -11 -21
-10 -21 8 0 32 -22 24 -70 -25 l-44 -45 26 -27 27 -27 45 24 c54 27 71 45 80
83 3 15 9 38 12 52 6 25 -4 31 -32 19z"/>
<path d="M2967 5000 c-4 -17 -9 -20 -24 -12 -27 15 -100 13 -113 -3 -12 -15
16 -31 95 -56 58 -18 87 -39 329 -240 71 -59 166 -153 166 -165 0 -23 -23 -27
-39 -6 -9 11 -25 22 -36 24 -13 2 -21 12 -23 31 -2 19 -9 27 -23 27 -31 0 -56
17 -63 43 -5 20 -11 23 -31 19 -15 -2 -33 2 -43 10 -9 8 -25 18 -34 21 -10 4
-18 16 -18 28 0 18 -4 20 -25 15 -17 -4 -24 -3 -23 6 2 7 -8 14 -22 16 -45 6
-55 11 -42 24 18 18 14 38 -8 38 -10 0 -24 9 -30 19 -6 12 -17 17 -28 14 -10
-2 -38 6 -61 18 -33 17 -45 19 -51 10 -5 -10 -18 -5 -48 16 -23 15 -41 33 -40
38 3 46 -3 55 -33 55 -23 0 -32 -5 -36 -20 -7 -27 -41 -34 -93 -20 -42 11 -96
7 -157 -11 -18 -6 -33 -14 -33 -17 0 -8 -59 -37 -75 -37 -5 -1 -18 -6 -29 -11
-18 -11 -17 -12 4 -27 17 -12 21 -22 16 -41 -4 -18 -1 -28 11 -34 30 -16 116
-43 163 -52 25 -5 72 -15 105 -24 33 -8 74 -15 92 -16 17 0 35 -4 38 -10 3 -5
15 -10 25 -10 27 0 222 -88 275 -124 16 -12 46 -28 66 -37 33 -15 98 -84 88
-93 -2 -2 -20 -7 -40 -11 -26 -5 -40 -2 -52 9 -8 9 -25 16 -37 16 -16 0 -20 5
-16 18 3 9 -1 26 -9 36 -12 15 -17 17 -29 7 -17 -15 -36 -7 -36 15 0 20 -10
18 -37 -8 l-23 -21 0 21 c0 15 -6 22 -20 22 -11 0 -20 -7 -20 -15 0 -22 -30
-66 -41 -59 -5 3 -17 0 -28 -6 -12 -6 -22 -6 -25 -1 -4 5 0 11 6 14 7 3 -3 12
-22 20 -19 9 -44 26 -54 38 l-19 23 -9 -23 c-7 -19 -13 -22 -36 -16 -36 9 -36
9 -17 39 17 25 17 26 -10 36 -32 12 -62 13 -69 2 -3 -5 6 -25 19 -45 14 -20
25 -42 25 -49 0 -7 14 -37 30 -67 17 -30 28 -56 25 -59 -2 -3 -7 2 -11 11 -3
9 -20 25 -37 36 -18 12 -52 34 -77 50 -33 22 -48 27 -62 20 -16 -9 -18 -5 -18
27 0 27 -5 37 -20 41 -15 4 -18 11 -14 28 3 13 1 26 -5 29 -6 4 -11 19 -11 34
0 37 -11 72 -21 72 -17 0 -23 -32 -12 -61 12 -31 4 -38 -34 -31 -13 2 -23 13
-25 25 -4 23 -41 52 -80 61 l-27 6 22 -42 c12 -24 25 -45 28 -48 12 -11 31
-71 25 -77 -4 -4 -9 3 -13 15 -4 15 -13 22 -29 22 -14 0 -27 7 -31 18 -9 26
-103 112 -123 112 -42 0 -29 -56 18 -82 23 -12 102 -99 102 -112 0 -15 -39 -4
-59 18 -13 13 -39 27 -58 31 -38 7 -67 21 -98 47 -27 23 -77 40 -86 31 -5 -5
-2 -21 6 -36 7 -15 11 -27 7 -28 -22 -4 -59 5 -76 17 -11 8 -28 14 -38 14 -10
0 -18 5 -18 10 0 15 -33 12 -56 -5 -17 -13 -17 -14 -1 -15 27 0 20 -20 -7 -20
-27 0 -59 -26 -53 -44 5 -15 68 -24 209 -30 65 -3 127 -10 137 -15 11 -6 61
-11 113 -12 96 0 170 -12 223 -35 17 -7 53 -18 80 -25 28 -6 57 -18 65 -24 8
-7 48 -23 88 -35 78 -24 195 -87 186 -101 -11 -19 -112 -10 -151 14 -36 21
-165 48 -228 47 -64 0 -139 20 -165 45 -36 34 -43 31 -35 -14 6 -37 5 -39 -15
-34 -12 3 -28 16 -37 29 -16 26 -42 31 -60 13 -12 -12 11 -59 59 -118 15 -19
26 -37 24 -39 -6 -5 -50 21 -59 36 -4 6 -12 12 -17 12 -5 0 -37 28 -72 63 -35
35 -85 76 -112 92 -43 25 -49 27 -58 12 -8 -15 -14 -14 -66 9 -61 28 -101 32
-144 15 -26 -10 -27 -11 -11 -41 16 -34 9 -55 -10 -29 -17 23 -57 30 -94 17
-43 -15 -42 -38 1 -76 29 -26 33 -32 21 -42 -19 -16 -10 -30 21 -30 13 0 24
-4 24 -10 0 -5 7 -10 15 -10 8 0 15 -4 15 -10 0 -5 -7 -10 -15 -10 -8 0 -15 5
-15 11 0 6 -6 9 -14 6 -20 -8 -72 33 -55 43 8 6 6 11 -7 18 -26 13 -124 26
-124 15 1 -12 33 -48 55 -61 26 -15 0 -16 -27 -1 -15 8 -22 8 -28 -1 -6 -9
-13 -9 -28 -1 -11 6 -23 11 -26 11 -10 0 -6 -30 6 -50 18 -28 3 -35 -23 -11
-27 25 -47 27 -55 6 -3 -8 -21 -17 -40 -21 -54 -10 -50 -24 6 -24 44 0 51 -3
46 -16 -5 -13 -1 -15 21 -9 59 15 370 22 493 11 75 -6 103 -12 215 -47 33 -10
82 -21 108 -24 44 -6 70 -26 54 -41 -3 -3 -42 -6 -86 -7 -65 0 -84 -4 -97 -19
-14 -14 -14 -20 -4 -33 18 -21 0 -18 -30 5 -14 11 -34 20 -44 20 -11 0 -28 7
-38 17 -17 15 -110 26 -131 15 -4 -2 6 -28 23 -58 18 -30 28 -54 25 -54 -4 0
-28 22 -54 48 -39 42 -91 72 -122 72 -5 0 -9 -10 -9 -22 0 -22 -1 -22 -25 5
-14 15 -29 27 -33 28 -59 7 -122 7 -122 0 0 -5 7 -16 15 -25 20 -19 19 -40 -1
-32 -9 3 -19 6 -23 6 -5 0 -23 14 -41 32 -29 27 -34 29 -44 15 -9 -11 -17 -12
-29 -6 -13 8 -19 6 -23 -5 -4 -11 -11 -13 -31 -5 -13 5 -34 9 -45 9 -17 0 -20
-4 -14 -30 5 -29 -6 -41 -20 -19 -3 6 -17 8 -33 4 l-26 -7 24 21 c13 12 21 24
17 28 -3 4 -11 2 -17 -4 -6 -6 -18 -9 -25 -6 -8 3 -14 1 -14 -5 0 -5 -12 -13
-26 -16 -20 -5 -24 -11 -19 -28 5 -14 3 -19 -6 -16 -13 4 -56 -38 -58 -57 0
-5 8 -10 20 -10 12 0 29 -14 40 -33 l21 -32 -42 15 c-42 15 -66 12 -55 -6 8
-12 -2 -12 -25 1 -24 13 -50 3 -50 -20 0 -13 -6 -17 -18 -13 -23 6 -47 -37
-39 -68 7 -25 -17 -89 -32 -89 -6 0 -11 -4 -11 -10 0 -14 -32 -50 -41 -44 -4
2 -5 -5 -2 -16 4 -14 0 -20 -11 -20 -9 0 -13 -6 -10 -15 3 -8 -4 -28 -15 -44
-12 -16 -21 -34 -21 -41 0 -7 -6 -10 -12 -7 -10 3 -12 -13 -10 -69 3 -58 0
-75 -11 -80 -12 -4 -14 -18 -9 -66 4 -51 2 -63 -12 -74 -13 -9 -16 -20 -11
-42 4 -20 2 -33 -7 -39 -7 -4 -13 -24 -13 -43 0 -22 -4 -34 -12 -33 -9 2 -11
-6 -7 -27 5 -20 2 -31 -7 -35 -20 -7 -13 -135 7 -135 8 0 14 7 14 16 0 13 7
15 30 11 22 -5 30 -3 30 8 0 8 9 15 20 15 11 0 20 5 20 10 0 6 9 10 20 10 11
0 20 5 20 11 0 7 10 9 25 7 17 -4 25 -1 25 8 0 8 9 14 20 14 11 0 20 5 20 10
0 6 11 8 25 4 18 -4 25 -2 25 9 0 13 30 28 47 24 3 -1 9 8 14 21 5 12 14 22
22 22 7 0 21 18 31 40 10 22 22 40 27 40 5 0 9 5 9 10 0 19 71 82 86 76 8 -3
14 1 14 10 0 11 6 15 20 11 12 -3 17 -1 14 5 -7 10 6 22 86 75 30 21 57 40 60
43 3 3 12 10 21 15 79 50 179 135 179 153 0 6 8 13 18 16 10 4 24 22 31 41 7
19 19 35 26 35 9 0 12 6 9 15 -9 24 -17 18 -53 -40 -18 -30 -36 -55 -40 -55
-3 0 -44 -34 -91 -76 -90 -80 -188 -149 -198 -139 -4 3 -1 10 6 14 7 4 10 15
7 23 -4 9 0 18 9 21 9 4 16 18 16 32 0 16 6 25 15 25 8 0 15 5 15 10 0 6 -6
10 -14 10 -8 0 -16 5 -18 12 -7 19 -37 1 -50 -29 l-12 -28 -4 28 c-2 16 3 36
11 45 8 10 17 25 20 35 4 9 13 17 20 17 23 0 72 28 95 55 12 14 33 25 46 25
14 0 28 5 31 10 9 14 100 60 119 60 8 0 19 6 23 13 4 6 27 25 49 40 23 15 52
39 64 52 13 14 32 25 41 25 10 0 23 9 29 20 6 11 21 20 33 20 23 0 63 14 129
43 21 10 41 17 45 17 4 1 24 14 43 30 20 18 46 30 62 30 15 0 43 9 63 20 19
11 51 29 70 40 20 11 44 20 54 20 10 0 21 3 25 7 10 11 79 33 102 33 12 0 27
6 33 14 6 7 40 21 76 31 36 9 82 26 102 36 21 11 44 19 53 19 9 0 20 4 26 8 5
5 29 15 54 22 25 8 68 24 96 36 47 21 102 34 212 53 53 10 62 19 38 37 -17 12
-17 14 -3 20 21 8 37 -3 30 -21 -7 -20 29 -20 93 0 129 41 606 52 673 16 11
-6 59 -13 107 -16 48 -3 100 -11 117 -20 16 -8 56 -15 89 -15 51 0 58 2 58 20
0 10 7 23 15 27 12 7 8 20 -21 78 -19 39 -33 80 -31 92 5 27 -19 20 -26 -9 -3
-12 -10 -17 -17 -13 -6 4 -20 -1 -30 -10 -17 -15 -22 -16 -36 -4 -14 11 -16
27 -11 97 6 88 -2 113 -34 105 -9 -3 -20 0 -23 6 -4 7 1 11 13 11 20 0 29 15
13 22 -4 2 -23 23 -41 48 -47 62 -148 160 -164 160 -8 0 -36 11 -62 25 -59 30
-71 26 -18 -6 55 -33 113 -90 113 -110 0 -10 7 -24 15 -32 8 -8 12 -17 9 -20
-13 -12 -50 16 -72 54 -13 22 -27 37 -32 34 -6 -4 -14 5 -20 19 -7 20 -17 26
-38 26 -15 0 -37 6 -47 14 -18 13 -18 14 3 27 20 12 20 15 5 31 -19 21 -53 24
-71 6 -9 -9 -12 -9 -12 -1 0 7 6 15 13 20 7 5 -3 10 -28 15 -22 3 -58 11 -80
18 -54 15 -165 21 -165 9 0 -6 -8 -8 -17 -5 -49 13 -83 17 -83 8 0 -5 8 -12
18 -16 9 -3 31 -14 47 -25 17 -11 36 -20 43 -20 14 -1 67 -41 208 -159 55 -45
84 -76 88 -94 3 -16 11 -28 18 -28 12 0 88 -78 88 -91 0 -13 -40 -17 -48 -5
-4 7 -15 15 -24 19 -9 3 -18 18 -20 34 -2 23 -7 27 -26 25 -13 -2 -25 3 -28
12 -4 10 -18 16 -35 16 -16 0 -29 5 -29 10 0 6 -8 10 -17 10 -10 0 -28 18 -41
40 -17 30 -29 40 -48 40 -22 0 -25 4 -21 21 4 15 0 23 -13 26 -10 3 -20 14
-22 26 -2 13 -14 24 -33 30 -16 5 -37 15 -45 22 -8 7 -28 15 -43 19 -26 6 -28
5 -22 -15 9 -29 -16 -21 -30 9 -5 12 -14 22 -20 22 -5 0 -21 12 -34 26 -19 20
-30 24 -53 19 -25 -6 -28 -4 -26 17 4 32 -37 39 -45 8z m-1418 -1210 c41 -6
79 -14 84 -19 12 -12 -32 -51 -60 -51 -12 0 -27 -8 -32 -18 -7 -14 -18 -18
-43 -15 -24 3 -29 2 -19 -6 12 -8 10 -11 -12 -16 -15 -4 -35 -4 -44 0 -16 6
-15 9 8 19 14 6 24 17 22 24 -6 15 -35 16 -50 1 -9 -9 -20 -9 -43 1 -48 20
-112 14 -133 -12 -17 -20 -19 -21 -52 -5 -20 9 -37 12 -40 7 -3 -6 -16 -5 -31
2 -33 15 -54 -3 -30 -27 25 -26 19 -41 -7 -17 -24 23 -57 30 -57 12 0 -5 4
-10 8 -10 5 0 18 -13 30 -30 l23 -30 -29 0 c-16 0 -45 11 -65 24 -19 13 -45
27 -56 31 -20 6 -21 4 -15 -22 6 -26 5 -27 -11 -11 -16 15 -16 19 -2 48 15 29
15 31 -1 26 -51 -14 -82 -17 -82 -7 0 6 8 11 19 11 10 0 24 6 30 14 6 7 22 11
36 8 24 -4 97 10 140 28 24 10 60 16 175 30 47 6 90 13 95 15 20 7 172 4 244
-5z"/>
<path d="M6808 4969 c-7 -5 -25 -9 -39 -9 -14 0 -43 -15 -66 -35 -22 -19 -43
-31 -47 -28 -6 6 -17 2 -86 -31 -14 -7 -54 -12 -90 -11 -36 1 -70 -3 -77 -7
-6 -5 -26 -10 -45 -12 -37 -3 -85 -28 -133 -68 -18 -16 -41 -28 -52 -28 -11 0
-28 -7 -39 -15 -16 -12 -17 -16 -5 -24 37 -24 81 -22 144 7 34 17 91 40 127
52 36 13 90 35 120 50 30 15 84 36 120 47 36 11 94 30 130 41 35 11 66 19 68
17 19 -18 -165 -120 -269 -150 -31 -9 -64 -22 -75 -29 -10 -6 -39 -18 -64 -26
-25 -7 -52 -19 -60 -26 -27 -21 -61 -26 -91 -14 -40 17 -46 8 -15 -23 30 -30
33 -47 9 -47 -12 0 -8 -5 11 -15 22 -12 31 -13 37 -4 9 15 32 1 25 -16 -3 -9
13 -21 42 -35 26 -12 54 -28 62 -34 8 -7 34 -18 58 -25 30 -8 42 -17 38 -26
-3 -9 0 -12 10 -8 16 6 84 -36 84 -52 0 -7 15 -9 37 -7 29 4 35 2 30 -11 -4
-10 0 -13 11 -10 10 2 27 -5 38 -15 12 -11 30 -22 40 -24 10 -2 18 -9 17 -16
-2 -8 7 -9 29 -5 25 5 30 3 26 -9 -5 -11 0 -14 17 -10 24 4 115 -35 115 -50 0
-4 7 -8 16 -8 10 0 14 -6 11 -14 -4 -10 0 -12 14 -9 13 4 19 0 19 -11 0 -9 5
-16 10 -16 6 0 10 7 10 15 0 17 25 20 35 5 3 -5 15 -10 26 -10 10 0 19 -4 19
-10 0 -5 7 -10 15 -10 8 0 15 -4 15 -10 0 -5 7 -10 15 -10 8 0 15 -7 15 -16 0
-11 6 -14 20 -9 11 4 20 2 20 -4 0 -6 7 -11 15 -11 8 0 15 -4 15 -10 0 -5 7
-10 15 -10 8 0 15 -4 15 -10 0 -5 7 -10 15 -10 8 0 15 -4 15 -10 0 -5 8 -10
18 -10 10 0 43 -22 73 -50 29 -27 57 -50 62 -50 4 0 7 -7 7 -15 0 -8 10 -17
23 -20 13 -4 29 -22 40 -46 10 -21 26 -39 34 -39 10 0 14 -6 10 -20 -3 -11 -1
-18 4 -14 5 3 9 -2 9 -10 0 -9 6 -16 14 -16 16 0 31 73 16 78 -12 4 -13 52 -1
52 15 0 8 214 -8 226 -9 7 -12 24 -9 47 3 27 0 37 -10 37 -10 0 -13 9 -10 30
3 18 0 31 -9 34 -18 7 -15 96 4 96 7 0 13 5 13 10 0 6 -6 10 -13 10 -7 0 -21
14 -30 30 -10 17 -22 30 -27 30 -9 0 -34 18 -64 46 -20 18 -40 21 -94 14 -29
-3 -55 -3 -58 2 -4 5 -13 7 -21 4 -9 -4 -21 -2 -28 4 -14 11 -58 -1 -70 -19
-9 -16 -25 -13 -25 4 0 19 -5 19 -34 -1 -16 -10 -26 -12 -31 -5 -3 6 -15 11
-25 11 -24 0 -110 -41 -110 -52 0 -4 29 -8 65 -8 35 0 86 -4 112 -9 26 -5 83
-15 126 -22 49 -7 77 -16 77 -25 0 -16 -72 -12 -78 5 -7 20 -22 12 -22 -11 0
-13 -3 -18 -8 -12 -10 16 -62 24 -89 13 -13 -5 -25 -4 -28 1 -10 16 -92 12
-109 -5 -21 -21 -36 -19 -66 10 -24 23 -28 24 -40 11 -16 -20 -6 -46 20 -53
11 -3 20 -11 20 -17 0 -34 -28 -26 -98 31 -40 32 -49 59 -17 46 8 -3 15 0 15
6 0 18 -38 51 -59 51 -10 0 -53 14 -95 31 -43 17 -79 29 -82 26 -14 -14 11
-56 39 -68 18 -7 43 -24 57 -37 l25 -24 -25 7 c-31 9 -176 81 -210 105 -14 10
-34 20 -45 22 -11 2 -19 9 -18 15 1 7 -18 19 -42 29 -56 21 -57 34 -4 34 22 0
50 5 62 12 12 6 65 13 117 14 52 1 111 6 131 9 24 5 39 3 44 -5 4 -7 11 -8 19
-1 6 5 34 12 61 15 80 9 115 18 115 29 0 7 -36 8 -110 3 -60 -3 -110 -5 -110
-2 0 2 12 11 26 21 15 9 24 12 20 7 -14 -23 15 -22 51 2 21 13 57 27 81 30 24
4 53 15 65 26 11 11 29 20 39 20 26 0 22 30 -7 62 -14 15 -25 32 -25 38 0 5
-4 10 -10 10 -5 0 -10 9 -10 20 0 11 -7 23 -16 27 -8 3 -13 11 -10 18 3 8 -2
11 -13 8 -10 -2 -41 0 -69 5 -28 5 -57 5 -64 1z"/>
<path d="M7230 4691 c-21 -26 -56 -42 -74 -35 -9 4 -22 2 -29 -4 -6 -6 -34
-13 -60 -17 -31 -5 -53 -14 -60 -26 -16 -26 -27 -24 -27 6 0 30 -11 32 -35 5
-10 -11 -28 -20 -40 -20 -12 0 -39 -15 -61 -34 -37 -32 -38 -33 -16 -40 13 -4
44 -3 70 3 47 10 251 30 347 34 43 2 50 5 53 25 2 12 8 22 14 22 6 0 8 -9 5
-20 -6 -24 10 -37 26 -21 7 7 6 15 -5 28 -22 25 -27 45 -16 66 7 13 4 17 -9
19 -10 1 -25 2 -33 4 -8 1 -19 2 -25 3 -5 1 -3 6 5 11 13 9 13 10 0 10 -8 0
-22 -9 -30 -19z"/>
<path d="M3449 3997 c-73 -31 -161 -117 -120 -117 18 0 206 49 246 64 66 25
82 23 193 -26 24 -10 57 -22 74 -25 37 -7 155 -68 184 -94 11 -11 25 -19 31
-19 6 0 13 -7 16 -15 4 -8 21 -21 39 -28 33 -14 98 -29 98 -23 0 12 -83 83
-157 135 -24 16 -31 18 -27 7 12 -31 -60 -11 -101 29 -40 38 -75 65 -85 65 -6
0 -10 6 -10 13 0 9 -3 8 -9 -2 -7 -11 -17 -9 -56 8 -26 12 -55 21 -64 21 -9 0
-21 4 -26 9 -6 5 -46 12 -90 16 -70 5 -87 3 -136 -18z"/>
<path d="M2305 3992 c-6 -5 -26 -15 -45 -23 -52 -20 -71 -42 -77 -91 -8 -58
-88 -174 -146 -213 -15 -9 -27 -21 -27 -24 0 -4 26 -8 58 -8 36 0 44 1 20 4
-21 2 -38 7 -38 11 1 13 51 43 77 46 21 2 29 10 35 34 5 17 13 34 20 38 7 5 9
-1 4 -20 -3 -14 -2 -26 3 -26 5 0 16 -2 23 -5 11 -4 14 7 12 57 -1 38 3 71 11
84 7 11 11 31 8 45 -4 21 3 30 36 52 22 15 49 27 58 28 10 0 27 4 38 9 16 7
11 9 -20 9 -23 1 -45 -3 -50 -7z"/>
<path d="M2838 3912 c-20 -11 -50 -29 -66 -41 -17 -11 -33 -21 -36 -21 -7 0
-75 -43 -111 -70 -28 -21 -165 -157 -165 -164 0 -6 -23 -36 -47 -61 -7 -8 -13
-18 -13 -22 0 -5 -8 -18 -17 -29 -23 -26 -40 -54 -85 -144 -50 -98 -51 -153
-3 -100 13 15 26 19 44 15 14 -3 39 2 55 10 32 17 79 20 105 5 10 -5 33 -12
52 -15 19 -3 50 -8 70 -11 25 -4 41 -14 50 -30 11 -22 17 -24 61 -18 30 4 48
3 48 -4 0 -5 11 -12 25 -14 17 -4 25 -1 25 8 0 11 5 11 25 2 21 -9 23 -14 12
-26 -9 -12 -9 -16 1 -19 6 -3 12 -11 12 -19 0 -9 8 -12 28 -8 78 16 314 -189
341 -295 2 -8 14 -32 27 -53 14 -21 26 -51 28 -66 4 -28 23 -85 37 -114 17
-34 39 -103 39 -124 0 -12 7 -38 15 -57 22 -53 19 -62 -11 -42 -38 24 -51 6
-62 -86 -5 -42 -17 -91 -25 -110 -8 -19 -23 -56 -33 -84 -10 -27 -24 -61 -31
-75 -7 -14 -13 -33 -13 -42 0 -10 -9 -34 -20 -54 -12 -20 -18 -44 -15 -55 4
-10 2 -19 -4 -19 -15 0 -47 -68 -56 -117 -3 -23 -13 -47 -21 -54 -21 -17 -44
-64 -44 -89 0 -22 -16 -28 -22 -8 -3 9 -9 8 -21 -4 -22 -22 -21 -28 4 -28 30
0 18 -22 -24 -44 -20 -11 -37 -25 -37 -32 0 -20 -44 -42 -74 -37 -20 4 -31 0
-42 -16 -9 -12 -26 -21 -40 -21 -23 0 -28 -9 -25 -37 1 -7 -5 -13 -14 -13 -8
0 -15 -6 -15 -14 0 -9 -11 -12 -35 -10 -32 2 -35 0 -29 -18 4 -13 -1 -26 -15
-39 -25 -24 -37 -24 -50 -1 -9 16 -10 16 -16 0 -5 -13 -14 -16 -36 -11 -24 5
-29 2 -29 -15 0 -11 6 -22 13 -25 10 -4 10 -7 -1 -18 -10 -11 -12 -10 -12 3 0
9 -9 20 -20 23 -11 3 -20 11 -20 16 0 5 -4 9 -10 9 -5 0 -10 -13 -10 -30 0
-16 -4 -30 -10 -30 -5 0 -10 5 -10 10 0 18 -25 21 -56 8 -16 -7 -47 -13 -69
-13 -33 0 -40 -3 -40 -20 0 -11 -8 -21 -18 -23 -10 -2 -17 3 -17 12 0 18 -16
21 -25 5 -6 -9 -80 -6 -142 7 -15 3 -23 -2 -28 -16 -7 -24 -25 -27 -25 -5 0
20 -37 16 -74 -9 -20 -13 -31 -15 -39 -7 -8 8 -5 11 12 11 12 0 20 4 16 9 -7
13 -87 12 -102 -1 -7 -6 -13 -7 -13 -3 0 4 -11 0 -24 -8 -24 -16 -45 -13 -111
14 -11 5 -38 8 -60 7 -27 -1 -61 8 -103 27 -58 28 -62 32 -60 60 3 25 -1 31
-22 33 -13 2 -33 10 -43 17 -17 12 -57 10 -57 -2 0 -11 67 -65 93 -75 15 -5
27 -16 27 -23 0 -7 6 -15 13 -18 6 -2 9 -8 5 -12 -4 -5 -31 6 -59 23 -27 18
-55 32 -62 32 -12 0 167 -127 198 -140 11 -5 34 -19 52 -32 30 -23 31 -26 16
-41 -15 -15 -15 -16 5 -10 12 3 29 2 38 -1 16 -6 16 -8 0 -24 -26 -29 -20 -58
14 -71 73 -27 90 -31 175 -41 118 -15 473 -15 600 0 55 6 124 14 153 17 49 5
53 7 48 28 -5 21 -2 22 77 28 180 15 222 33 262 118 18 37 35 59 49 62 12 3
41 13 66 22 25 9 54 19 65 20 49 9 298 25 389 25 140 1 260 32 284 75 7 13 24
5 103 -48 52 -35 159 -96 239 -135 140 -69 143 -71 115 -82 -65 -23 -195 -103
-195 -119 0 -21 264 -60 410 -60 209 0 489 31 610 66 69 21 75 26 60 53 -10
19 -9 21 7 17 10 -3 41 -8 68 -12 l50 -7 -29 27 c-15 14 -27 28 -25 29 2 2 31
16 64 31 125 56 165 79 165 92 0 7 -7 13 -15 13 -26 0 -16 16 25 39 38 21 40
25 40 70 0 26 4 51 9 57 5 5 12 20 16 33 5 17 4 22 -6 19 -8 -3 -14 -10 -14
-15 0 -20 -16 -28 -25 -13 -8 13 -11 12 -23 -4 -11 -15 -17 -17 -35 -7 -26 14
-18 43 12 40 34 -2 46 0 46 11 0 6 -9 10 -21 10 -15 0 -20 5 -17 23 2 16 -2
22 -17 22 -11 0 -26 4 -32 8 -8 5 -13 4 -13 -3 0 -6 -12 -10 -27 -8 -22 2 -28
8 -29 28 -2 44 -4 51 -12 46 -5 -3 -9 -24 -10 -47 -2 -50 -6 -56 -27 -39 -9 8
-15 8 -15 2 0 -14 -37 6 -72 39 -28 27 -36 49 -18 49 6 0 10 5 10 10 0 6 -9
10 -20 10 -13 0 -20 -7 -20 -20 0 -11 -4 -20 -9 -20 -5 0 -11 9 -14 20 -5 20
-37 29 -37 10 0 -5 -6 -10 -13 -10 -23 0 -67 -25 -67 -38 0 -7 -5 -10 -11 -6
-6 3 -9 19 -5 35 4 19 1 29 -7 29 -6 0 -23 14 -36 30 -18 24 -27 28 -37 19
-16 -13 -48 -4 -39 11 9 14 -7 12 -30 -4 -34 -22 -71 -27 -85 -11 -9 10 -9 15
-1 15 14 0 15 27 1 35 -16 10 -41 -16 -35 -35 4 -14 0 -18 -17 -17 -13 0 -32
-3 -43 -8 -14 -6 -10 2 13 25 17 18 32 40 32 50 0 10 3 26 7 36 4 12 2 15 -8
12 -7 -2 -16 -15 -19 -27 -6 -26 -26 -26 -22 0 4 22 -16 35 -31 20 -6 -6 -15
-11 -19 -11 -14 0 -9 47 7 60 8 7 15 20 15 28 0 12 -4 10 -16 -7 -13 -17 -23
-22 -43 -18 -22 5 -29 1 -40 -23 -11 -26 -10 -32 8 -51 24 -26 19 -39 -6 -16
-23 20 -69 12 -76 -14 -6 -22 -27 -26 -27 -6 0 16 32 47 48 47 17 0 15 30 -3
36 -8 4 -15 12 -15 20 0 8 -4 14 -10 14 -5 0 -10 -6 -10 -13 0 -8 -9 -22 -20
-32 -11 -10 -18 -21 -15 -24 2 -4 -1 -13 -6 -21 -8 -13 -11 -12 -20 2 -5 10
-22 18 -36 18 -23 0 -25 3 -21 31 4 25 0 33 -22 44 -26 13 -40 11 -40 -6 0 -3
9 -9 20 -12 27 -7 29 -60 3 -55 -10 2 -19 12 -21 23 -3 11 -11 24 -19 28 -10
6 -13 17 -9 33 7 28 0 30 -26 7 -17 -15 -20 -15 -41 5 -13 12 -29 22 -35 22
-7 0 -12 11 -12 25 0 26 15 35 22 13 2 -6 10 -8 17 -4 9 6 9 11 0 23 -10 12
-10 16 0 23 8 4 11 13 7 19 -8 13 23 63 35 55 5 -3 9 -19 9 -36 0 -32 27 -98
41 -98 16 0 18 17 4 56 -15 43 -12 56 10 47 11 -4 15 2 15 23 0 16 4 34 8 40
10 15 40 24 57 18 24 -9 17 -24 -10 -24 -32 0 -32 -10 3 -43 33 -31 54 -37 27
-7 -14 16 -16 23 -7 32 9 9 15 8 25 -6 11 -15 17 -17 35 -7 12 6 22 16 22 21
0 17 18 11 23 -7 4 -15 6 -14 12 5 6 17 13 21 27 16 10 -3 26 0 34 7 21 17 28
5 15 -31 -10 -31 -10 -31 19 -25 27 6 30 4 30 -19 0 -19 -8 -29 -37 -41 -21
-9 -46 -21 -55 -26 -10 -5 -26 -9 -37 -9 -10 0 -22 -7 -25 -16 -9 -23 -8 -26
7 -17 21 13 98 31 117 26 12 -3 19 3 24 21 6 26 29 35 41 16 3 -5 19 -10 36
-10 16 0 29 -4 29 -10 0 -22 41 -9 50 15 6 15 17 25 30 25 11 0 20 6 20 13 0
16 81 97 98 97 15 0 44 -44 40 -61 -2 -8 7 -15 20 -17 13 -2 25 -9 28 -17 6
-14 40 -9 51 8 4 7 0 8 -11 4 -23 -9 -37 0 -29 19 4 10 12 12 27 8 18 -6 19
-5 7 10 -13 15 -12 30 3 67 5 11 1 18 -11 21 -15 4 -20 16 -22 52 -1 27 2 46
9 46 5 0 10 -18 10 -40 0 -22 3 -40 8 -40 9 0 32 49 32 71 0 12 12 19 40 24
42 7 46 25 4 25 -27 0 -29 3 -12 30 7 10 9 22 5 26 -11 11 -37 -16 -37 -39 0
-38 -14 -7 -15 33 -1 40 -14 65 -22 43 -7 -20 -23 -15 -23 7 0 11 5 20 10 20
6 0 10 8 10 19 0 10 9 21 20 24 29 7 26 51 -4 71 -14 9 -32 13 -41 9 -12 -4
-16 -1 -15 13 1 10 2 24 1 30 -1 16 -37 24 -50 11 -8 -8 -11 -6 -11 5 0 9 5
20 10 23 6 3 10 14 10 23 -1 14 -2 14 -12 -3 -6 -11 -12 -21 -14 -23 -1 -2
-12 2 -24 8 -25 14 -70 5 -70 -13 0 -6 -7 -20 -14 -30 -13 -17 -15 -17 -40 6
-29 27 -33 42 -13 51 6 3 -7 4 -30 2 -23 -2 -43 0 -45 6 -4 11 -58 -10 -70
-27 -5 -6 -8 -3 -8 7 0 9 -11 29 -25 44 -14 15 -25 33 -25 39 0 15 -28 28 -41
19 -5 -3 -9 -12 -9 -21 0 -10 -6 -13 -16 -9 -9 3 -20 6 -25 6 -5 0 -9 11 -9
25 0 14 5 25 10 25 17 0 11 29 -8 39 -9 5 -29 7 -42 4 -18 -3 -32 2 -44 16
-23 26 -41 27 -31 4 11 -24 6 -146 -6 -157 -5 -6 -9 -18 -9 -27 0 -24 -14 -31
-45 -23 -14 3 -25 13 -25 23 0 10 -9 17 -21 18 -12 1 -24 5 -27 8 -11 11 43
50 71 52 35 1 44 10 29 25 -9 9 -20 7 -45 -7 -48 -25 -71 -15 -63 29 5 25 3
35 -9 40 -8 3 -15 12 -15 21 0 17 -25 21 -35 5 -10 -15 -35 -12 -35 5 0 22
-31 18 -37 -5 -6 -24 -19 -26 -27 -5 -3 8 -16 15 -28 15 -39 0 -68 12 -68 26
0 8 -3 14 -6 14 -9 0 -30 -24 -37 -42 -7 -21 -20 -22 -49 -7 -17 9 -20 9 -15
-4 4 -10 -2 -17 -20 -22 -35 -8 -41 1 -15 24 28 23 28 28 -2 33 -18 4 -26 0
-29 -14 -7 -24 -24 -23 -32 3 -6 19 -8 20 -26 3 -10 -9 -19 -28 -19 -41 0 -22
-1 -23 -16 -9 -20 20 -30 20 -46 -1 -7 -10 -25 -24 -40 -32 -16 -8 -28 -18
-28 -23 0 -4 -7 -8 -15 -8 -9 0 -18 -7 -21 -15 -3 -8 -14 -17 -25 -20 -20 -7
-27 -45 -8 -45 5 0 7 -5 3 -11 -5 -8 -8 -8 -14 0 -10 18 -32 -13 -28 -41 2
-16 -3 -24 -16 -26 -17 -4 -18 0 -12 39 4 24 10 87 15 140 5 63 13 106 24 123
9 14 17 41 17 60 0 19 8 42 17 52 20 19 56 95 49 101 -9 10 -26 -9 -26 -28 0
-23 -13 -25 -30 -4 -7 8 -23 15 -36 15 -17 0 -24 6 -24 19 0 32 -17 34 -71 6
-40 -19 -55 -23 -65 -14 -8 6 -23 9 -34 6 -15 -4 -20 0 -20 14 0 16 -3 18 -19
10 -18 -10 -31 -6 -31 11 0 4 10 8 23 8 24 0 47 17 47 33 0 5 -20 7 -45 5 -25
-3 -48 -1 -51 4 -3 5 -17 14 -32 19 -18 7 -22 13 -15 20 8 8 17 8 31 0 17 -9
19 -8 15 9 -8 30 -56 35 -92 9 -17 -13 -36 -19 -46 -15 -22 8 -14 30 13 34 12
2 22 9 22 17 0 18 -25 26 -39 12 -16 -16 -24 -2 -12 22 7 13 8 22 1 26 -5 3
-10 1 -10 -4 0 -15 -26 -14 -50 1 -15 10 -27 10 -50 1 -27 -10 -32 -9 -36 5
-14 45 -25 62 -39 62 -8 0 -15 -4 -15 -10 0 -5 -16 -10 -35 -10 -27 0 -35 4
-35 18 0 18 -48 42 -82 42 -22 0 -48 32 -30 38 10 3 10 7 1 18 -9 11 -8 19 7
36 19 21 19 21 -8 14 -25 -6 -28 -4 -28 18 0 13 -3 37 -6 54 -5 22 -1 35 15
51 12 12 21 26 21 32 0 7 10 21 23 32 15 13 18 21 10 24 -7 3 -13 14 -13 25 0
15 -5 19 -20 15 -11 -3 -20 -2 -20 3 0 28 40 71 119 125 111 76 190 100 306
93 41 -3 72 -1 69 4 -15 23 -86 41 -184 45 -89 3 -111 1 -142 -15z"/>
<path d="M2034 2821 c-46 -12 -91 -41 -103 -68 -6 -13 -11 -48 -11 -78 0 -58
1 -57 -64 -67 -33 -5 -31 -28 3 -28 42 0 47 -16 9 -29 l-32 -11 27 -28 c15
-16 25 -31 22 -34 -3 -2 4 -13 15 -23 24 -22 26 -51 4 -63 -18 -10 -61 -4 -70
9 -3 5 -13 9 -24 9 -10 0 -20 6 -23 14 -3 8 -31 16 -76 20 -54 6 -78 13 -100
32 -16 13 -34 24 -40 24 -20 0 -11 18 20 41 20 14 55 25 93 29 l61 7 -58 2
c-31 0 -65 -3 -75 -8 -9 -5 -32 -16 -50 -24 -72 -31 -138 -114 -166 -207 -26
-88 3 -309 47 -357 17 -20 18 -25 6 -40 -8 -10 -20 -22 -26 -26 -10 -6 -6 -20
14 -57 32 -59 25 -75 -12 -31 -15 17 -33 31 -41 31 -16 0 -19 -16 -4 -25 16
-10 12 -25 -5 -19 -11 5 -15 -1 -15 -22 0 -36 9 -51 35 -55 15 -3 21 -13 23
-43 2 -21 10 -45 18 -53 11 -12 12 -18 3 -29 -15 -18 27 -56 56 -49 14 3 24
-3 33 -22 9 -20 9 -24 0 -15 -14 14 -68 16 -68 3 0 -6 5 -13 10 -16 19 -12 0
-24 -33 -22 -18 1 -37 9 -44 17 -7 8 -12 11 -12 5 0 -5 11 -23 25 -40 15 -16
23 -24 20 -17 -4 6 -5 12 -1 12 9 0 49 -24 72 -44 20 -17 23 -17 23 -3 0 9 -4
19 -10 22 -13 8 -13 45 0 45 6 0 16 -11 22 -25 7 -16 17 -23 27 -20 20 6 35
-4 44 -28 6 -17 8 -17 32 -1 18 12 29 13 38 6 14 -12 53 -6 74 11 17 13 44 1
37 -17 -8 -20 11 -29 26 -11 7 8 18 15 25 15 7 0 18 7 25 15 16 19 33 9 25
-15 -5 -17 10 -20 68 -11 4 1 7 13 7 29 0 15 9 35 20 45 11 9 20 21 20 27 0 5
-9 14 -20 20 -22 12 -26 40 -8 58 23 23 38 14 32 -18 -4 -19 -2 -30 5 -30 6 0
11 -13 11 -29 0 -31 25 -49 34 -25 10 26 7 74 -5 74 -8 0 -8 4 -1 13 5 6 12
23 14 36 4 29 25 39 34 17 4 -10 -2 -24 -16 -36 -27 -23 -21 -34 18 -35 23 0
27 -4 27 -29 0 -26 3 -29 38 -31 38 -2 53 17 22 29 -8 3 -15 12 -15 21 0 8 -6
15 -14 15 -8 0 -16 7 -20 15 -3 8 -1 15 4 15 13 0 51 -22 65 -36 29 -32 55
-20 55 27 0 12 7 19 19 19 11 0 23 5 26 10 4 6 11 8 16 5 13 -9 39 8 52 35 7
13 21 24 33 25 11 1 34 15 50 31 16 16 46 42 67 58 35 25 41 27 63 16 13 -8
24 -17 24 -22 0 -4 5 -8 10 -8 6 0 10 7 10 15 0 8 -6 15 -13 15 -7 0 -18 9
-25 20 -12 20 -12 21 13 4 23 -15 30 -13 26 10 -4 22 12 47 26 42 25 -10 43
14 43 56 0 25 -5 41 -15 44 -8 4 -15 13 -15 21 0 8 5 11 10 8 6 -3 10 3 10 14
0 14 8 21 27 23 30 3 47 38 19 38 -22 0 -20 16 5 39 15 14 21 31 21 66 0 51
17 67 50 46 24 -15 34 -8 48 33 9 29 8 39 -9 69 -11 19 -21 48 -23 63 -3 28
-22 44 -80 64 -24 8 -28 15 -28 49 0 35 -4 43 -30 56 -16 8 -35 15 -43 15 -8
0 -20 7 -27 15 -11 13 -10 18 8 31 24 16 29 58 10 70 -7 4 -31 7 -55 5 -28 -2
-43 2 -43 9 0 7 -7 10 -15 6 -9 -3 -15 0 -15 8 0 7 -7 19 -15 26 -8 7 -15 25
-15 40 0 15 -7 30 -14 33 -10 4 -13 1 -9 -9 8 -21 -11 -17 -32 6 -11 12 -30
20 -49 19 -29 0 -29 -1 -8 -9 26 -11 29 -30 4 -30 -9 0 -49 9 -87 19 -81 23
-206 34 -251 22z m406 -118 c48 -27 120 -90 120 -108 0 -5 23 -37 50 -69 27
-33 47 -62 45 -65 -3 -2 -10 0 -16 6 -6 6 -17 9 -25 6 -8 -3 -16 5 -20 21 -5
22 -30 46 -47 46 -3 0 -7 -10 -10 -21 -6 -22 -15 -22 -77 -4 -10 3 -20 -5 -27
-25 -9 -24 -16 -29 -39 -27 -21 1 -31 -4 -39 -20 -5 -13 -15 -23 -22 -23 -16
0 -27 20 -11 21 7 0 3 4 -9 9 -13 5 -32 5 -50 -2 -22 -8 -36 -7 -67 8 -22 11
-41 24 -43 31 -3 7 14 32 36 56 23 24 41 49 41 56 0 20 71 111 99 126 30 16
48 12 111 -22z"/>
<path d="M1592 1365 c-10 -12 -9 -22 7 -55 21 -43 15 -58 -15 -35 -21 16 -64
20 -64 6 0 -34 97 -52 303 -58 113 -3 167 -1 167 6 0 11 -23 13 -145 13 -33 0
-66 5 -73 11 -7 6 -31 10 -52 9 -30 -1 -40 2 -40 14 0 11 -6 13 -19 9 -24 -7
-32 5 -34 55 -1 42 -13 50 -35 25z"/>
</g>
</svg>
